<?xml version="1.0" encoding="UTF-8"?>
<svg version="1.1" viewBox="0 0 800 800" width="1280" height="1280" xmlns="http://www.w3.org/2000/svg">
<path transform="translate(0)" d="m0 0h800v800h-800z" fill="#FDFDFD"/>
<path transform="translate(366,191)" d="m0 0h36l36 3 30 5 31 8 25 8 28 10 26 11 27 13 16 8 19 10 16 10 12 11 7 10 1 3v8l-6 7-10 5-15 4-36 5-36 4-2 1-1 3 9 3 39 14 20 10 9 7 7 7 4 7 1 7-5 10-9 8-15 8-27 9-41 11-13 4-5 2 1 5 10 7 38 19 15 10 9 8 3 5v6l-8 7-14 8-19 8-36 12-27 7-33 7-33 6-28 4-30 3-27 1-28-1-23-3-24-6-22-8-19-10-11-7-12-9-10-9-13-13-11-14-9-14-8-14-9-22-7-25-4-27v-20l2-17 5-24 6-18 9-20 6-10 10-14 10-11 12-12 16-12 19-11 15-7 27-9 23-5 33-4z" fill="#2C4595"/>
<path transform="translate(366,191)" d="m0 0h36l36 3 30 5 31 8 25 8 28 10 26 11 27 13 16 8 19 10 16 10 12 11 7 10 1 3v8l-6 7-10 5-15 4-36 5-36 4-2 1-1 3 9 3 39 14 20 10 9 7 7 7 4 7 1 7-5 10-9 8-15 8-27 9-41 11-13 4-5 2 1 5 10 7 38 19 15 10 9 8 3 5v6l-8 7-14 8-19 8-36 12-27 7-33 7-33 6-28 4-30 3-27 1-11-1v-1l21-3 26-6 19-5 19-7 17-8 11-8 8-9 6-11 3-11v-11l-6-11-10-9-23-13-16-8-14-10-1-3-4-2-7-10-4-9-1-11 3-9 12-17 14-17 10-12 5-5 7-6 10-5 9-6 5-2v-2l9-2 1-1 7-1 7-3 6 1 2 2 4-2v2l9 1v-2l5 1 4 1 4 2h13l3 3h13l10-3 1-1h9l8 1 23-1 6-2 2-2 9-3 5-2 3-2 4-10 3-2v-6h-2l-6-7-2-1v-2l-4-1v-2h-3v-2h-3v-2l-10-4v-2l-9-3v-2l-9-3-25-13-7-3-9-4-26-10-3-2-6-2-17-6-9-2-8-3-15-4-7-1-1-1-14-2-31-5-18-2-37-2h-21l-12 2-18 1-11 1 4-2 25-4 19-2z" fill="#297BBE"/>
<path transform="translate(392,342)" d="m0 0 1 4 5 2v2l5 1 1 1 13 1 4 4 1 4-13 17-9 14-3 10 1 9 4 10 7 10 10 9 12 6 19 10 18 10 11 10 6 11v11l-4 13-6 10-9 10-10 7-19 9-27 9-35 8-21 3h-17l-23-3-24-6-22-8-19-10-11-7-12-9-10-9-13-13-11-14-9-14-8-14-9-22-7-25-4-27v-20l2-17h1l-1 18v18l3 7 6 7 17 12 10 6 14 6 24 7 15 3h37l24-4 18-6 17-8 15-10 13-12 6-7 8-13 6-15z" fill="#E5307D"/>
<path transform="translate(261,254)" d="m0 0h19l21 3 21 6 18 8 16 10 10 9 8 8 9 14 5 12 3 10 1 8v11l-4 13-7 14-8 11-11 11-12 9-16 9-17 7-15 4-19 3h-37l-23-5-18-6-13-6-14-8-14-11-7-9-1-4v-18l2-24 5-21 5-15 9-20 4-7 8-6h2v-2l5-2 9-6 21-6 21-3z" fill="#392419"/>
<path transform="translate(392,342)" d="m0 0 1 4 5 2v2l5 1 1 1 13 1 4 4 1 4-13 17-9 14-3 10 1 9 4 10 7 10 10 9 12 6 19 10 18 10 11 10 6 11v11l-4 13-6 10-9 10-10 7-19 9-11 4-3-1 5-3 14-5 9-5 4-2h3l1-3 7-6 8-10 2-4 1-6-7 1-5 2-1 2-7 1v2h-2l-1 4-5 1-2-8-5-2-4-3v-2h-3l-1-2h-5l-2-4-10-2-2-1-10-1-5-1-8-1-3-3-10-2-11-4-5-1-19-4-5-2h-7l-22-5-12-2-2-1-4 1v-2l-5-2-3-1-1-2h-5l-1-3-5 1-7-2v-2l-3 1-1-2-1 2h-2l-2-5-6 1-7-3-5-1v-2h-2l-1 4-5-1v-3l-1 2-2-1-1-1-1 3-11 1-3-3-4 1v-3l-9-3-2-2-8-1-2-3-3-1-1-4h-2v-2h-2l-4-8-2-2-2-4 1-1-5-2-1 1 1 14 2 5v5h-2l-7-25-4-27v-20l2-17h1l-1 18v18l3 7 6 7 17 12 10 6 14 6 24 7 15 3h37l24-4 18-6 17-8 15-10 13-12 6-7 8-13 6-15z" fill="#C8307C"/>
<path transform="translate(366,191)" d="m0 0h36l36 3 30 5 31 8 25 8 28 10 26 11 27 13 16 8 19 10 16 10 12 11 7 10 1 3v8l-6 7-10 5-15 4-36 5-36 4-2 1-1 3 9 3 39 14 20 10 9 7 7 7 4 7 1 7-5 10-9 8-15 8-27 9-41 11-13 4-5 2 1 5 10 7 38 19 15 10 9 8 3 5v6l-8 7-14 8-19 8-36 12-27 7-33 7-33 6-28 4h-10v-1l36-5 36-7 2-1v-3l5-3 13-4 33-11 14-6 18-11 11-9 2-2-1-7-7-7-16-11-20-12-7-4-11-8-8-7-1-4 3-1 1-3 26-6 35-7 22-6 16-8 8-7 2-3v-13l-7-11-12-9-16-9-23-11-37-15-1-4 8-3 49-2 31-3 18-4 6-3 5-6 1-2v-9l-3-6-5-5-5-4v-2l-4-1v-2h-3v-2h-3v-2l-10-4v-2l-9-3v-2l-9-3-25-13-7-3-9-4-26-10-3-2-6-2-17-6-9-2-8-3-15-4-7-1-1-1-14-2-31-5-18-2-37-2h-21l-12 2-18 1-11 1 4-2 25-4 19-2z" fill="#39BDED"/>
<path transform="translate(367,619)" d="m0 0h55l42 2 32 3 24 4 15 4 8 4 1 1v5l-7 5-17 5-35 5-40 3-40 1h-27l-32-1-52-5-22-4-16-5-5-4v-5l6-4 17-5 25-4 43-4z" fill="#412521"/>
<path transform="translate(519,468)" d="m0 0 12 2 8 1 3 2 5 1 1-4 5 2 14 9 10 8 6 7v5l-11 10-16 10-14 7-25 9-17 5-9 3-5 3v3l-16 4-22 4-28 4h-8v2l-20 2-27 1-11-1v-1l21-3 26-6 19-5 19-7 17-8 7-5 5-2 7-7 7-11 1-4h3l1-4h2l3-15v-6l6-8 8-3 11-1v-2z" fill="#2798D2"/>
<path transform="translate(392,342)" d="m0 0 1 4 5 2v2l5 1 1 1 13 1 4 4 1 4-13 17-9 14-3 10 1 9 4 10 7 10 10 9 12 6 19 10 7 4-4 2-5-3-8-1-14-7-10-4-8-5-8-3-13-7-9-3v-2h-8l-6-3-5-1v-3l-9 1-4-1-7 1v2l-14 3-21 6-16 3-10 1h-27l-19-3-18-5-16-6-17-9-13-10-2-3 4 2 13 9 10 6 14 6 24 7 15 3h37l24-4 18-6 17-8 15-10 13-12 6-7 8-13 6-15z" fill="#A63480"/>
<path transform="translate(253,253)" d="m0 0h33l23 4 21 7 12 6 10 6v2l6 2 10 9v2l3 1 6 7 5 3 10 1 24 3 16 4 15 9 1 1 1 9-4 6-7 11-12 14-13 16-9 13-3 5-2 7 1 11 4 9 7 10 9 8 4 4-5-2-12-11-7-11-3-8-1-9 3-10 9-14 11-14 2-5-2-4-2-1-13-1-6-3-3-3-2-1v-4h-2l-2-11-5-15-6-11-8-10-11-11-19-12-18-8-21-6-21-3h-19l-24 2-19 4-13 4-9 6-5 1v2l-9 6 2-4 6-9 9-11h3l2 4 11-1 9-3z" fill="#543787"/>
<path transform="translate(643,290)" d="m0 0 3 3 1 3v9l-4 6-6 5-15 4-15 2-22 2-49 2-8 2 1 4 5 1 1 3 5 2v4h-8v-2l-3-1-1-2-5-1-7 3-6 4-6 2-4-2-7 2-10 1-5 2h-7l-3-1-5 2-13 2-11 4h-2v2l-4 1-3 3h-2l-2 4-5 5-3 5-4 10-7 6h-2l-3 12 1 12 1 5h2l5 9 5 5 2 3-4-2v-2l-4-2-7-10-4-9-1-11 3-9 12-17 14-17 10-12 5-5 7-6 10-5 9-6 5-2v-2l9-2 1-1 7-1 7-3 6 1 2 2 4-2v2l9 1v-2l5 1 4 1 4 2h13l3 3h13l10-3 1-1h9l8 1 23-1 6-2 2-2 9-3 5-2 3-2 4-10 3-2z" fill="#2965AC"/>
<path transform="translate(171,438)" d="m0 0 3 2 2-1 3 3 1 6h2l4 8 2 1v2l4 1 2 7 2 3 4 7v3h3v4l4 2 6 9 4-1 2 4 4 5v2l5 1v2h2l3 4 1 2h2v2l3 1 3 3 5 1v2l4 2-1 2h2v2h5l3 3 3 1 1 2 5 1 3 3 7 2 4 1v2h8v2l14 2h3l3 2v2l8-1 4 3 5-2 1 3h7v2l6-1 5-1h4l5-1 10 2v2h6v4l-5 1-23 1h-15l-14-2h-10l-24-7-13-5-19-10-11-7 1-2-10-7-11-9-3-3v-2h-2v-2h-2v-2h-2v-2h-2v-2h-2l-2-3v-3l-4-2-4-5v-3h-2l-2-3v-3l-3-1-3-6-6-10-3-7-5-10z" fill="#F33186"/>
<path transform="translate(638,437)" d="m0 0h13l9 3 8 6 3 4 1 6-4 6-5 5-10 5-5 1h-17l-15-3-12-5-7-5 1-4 7-7 11-5 18-6z" fill="#3ABEEE"/>
<path transform="translate(305,294)" d="m0 0h5l7 8 5 10 2 7v24l-4 13-6 9-6 5-4-1-7-10-5-14-1-5v-18l2-9 7-14z" fill="#FEF75A"/>
<path transform="translate(392,342)" d="m0 0 1 4 5 2v2l5 1 1 1 13 1 4 4 1 4-13 17-9 14-3 10 1 9 3 10-4-4-3-11v-7l1-5-1-3h-2v-2l-2 1-13 1-12 11-9 7-12 8-19 9-21 6-16 3-10 1h-27l-19-3-18-5-16-6-17-9-13-10-2-3 4 2 13 9 10 6 14 6 24 7 15 3h37l24-4 18-6 17-8 15-10 13-12 6-7 8-13 6-15z" fill="#7F3580"/>
<path transform="translate(200,297)" d="m0 0 5 1 7 14 3 14v15l-3 14-7 14-3 3-4-2-6-11-4-10-1-5v-18l3-12 7-14z" fill="#FEF75A"/>
<path transform="translate(541,526)" d="m0 0 3 1-21 8-23 7-9 3-5 3v3l-16 4-22 4-28 4h-8v2l-20 2-27 1-11-1v-1h36l-2-4 13-1 3-1 4-3 16-4 19-8 8-4 8-1v-2h5l1 1 9-1 11-3 1-1h7l2 1 1-2 1 2-2 4 6 1v-2l10-2 6-3h2v-2l4-1 3 1 9-4z" fill="#24A5DE"/>
<path transform="translate(298,291)" d="m0 0h6l4 3-5 3-6 9-4 10-1 6v18l4 14 5 10 4 5 3 2-5 2-8-1-6-3-7-8-5-12-1-6v-20l3-12 6-10 7-7z" fill="#C6307C"/>
<path transform="translate(653,403)" d="m0 0v3l-14 14-20 8-15 7h-6l-1 2 3 2v6l16-5 8-1 7-2h7l-4 2-21 7-9 5-6 6v3l4 4-9-3-4-4-13-2-6-4 1-6 2-5-5-1-4 2-10 2-6 1 1-2 31-9 33-9 19-7 13-7z" fill="#F7FFFF"/>
<path transform="translate(191,293)" d="m0 0 9 1 4 3-5 2-6 10-4 11-1 6v18l4 13 5 9 3 6-1 3-4 1-7-3-5-5-3-5-4-15-1-5v-14l3-16 7-14 4-5z" fill="#C1307C"/>
<path transform="translate(687,332)" d="m0 0h15l7 3 5 4 2 3-1 6-8 7-4 1h-17l-11-3-9-5-2-2 1-5 8-5 9-3z" fill="#39BDED"/>
<path transform="translate(342,215)" d="m0 0h24l9 1v3h-5l-1-1h-10l-19 3-26 3-6 1-13 2-9 1-21 3-9 2-8 1 4-5 6-3 11-1 27-5 15-1 12-2z" fill="#F43287"/>
<path transform="translate(643,290)" d="m0 0 3 3 1 3v9l-4 6-6 5-15 4-15 2-22 2-49 2-8 2 1 3-4-2 1-3 9-2 25-2 10-3 1-1h9l8 1 23-1 6-2 2-2 9-3 5-2 3-2 4-10 3-2z" fill="#2969AF"/>
<path transform="translate(196,270)" d="m0 0v3l-6 7-4 7-4-1-1 7-2 1v4h3l1-3 5-3 2 1-8 13-4 11-2 12v19l-3-4v-2l-2-1v-26-1l-5 2 1-6 9-21 5-9 8-6h2v-2z" fill="#3F2222"/>
<path transform="translate(359,217)" d="m0 0h10l6 2 1-2-1 4-2 2-29 2-16 2-45 4-17 2-9 1-8 3h-3l1-4 16-2 9-2 15-2 24-3 10-2 27-3z" fill="#297ABD"/>
<path transform="translate(353,223)" d="m0 0h18l-3 2-26 4-41 4-15 2-5 1-23 3h-13l-1-3 2-2v3l11-4 13-1 13-2 45-4z" fill="#543888"/>
<path transform="translate(316,208)" d="m0 0h31l16 3 1 2h-32l-31 4-7 2-13 1-11 3-3-1 13-6 17-5z" fill="#F7FFFF"/>
<path transform="translate(191,293)" d="m0 0 9 1 4 3-5 2-6 10-4 11-2 7-2-2v-7l-2-2-4 3-1 7v27h-1l-2-10v-14l3-16 7-14 4-5z" fill="#84347F"/>
<path transform="translate(332,212)" d="m0 0h35l7 4-4 1-4-1h-24l-28 3-6 1-19 2-20 4-11 1 5-4 7-1 11-3 13-1 7-2z" fill="#3ABEEE"/>
<path transform="translate(261,254)" d="m0 0h19l21 3 21 6 18 8 16 10 10 9 8 8 2 5-16-16-13-9-14-7-12-5-10-4-4-1h-12l-3-2h-10l-1-1h-40l-21 4h-5l3-2 19-4z" fill="#3B221F"/>
<path transform="translate(431,550)" d="m0 0 3 1v5l3 1v2h-3l-1 2-13 2h-8v2l-20 2-27 1-11-1v-1h36l-2-4 13-1 3-1 4-3 16-4z" fill="#2897D1"/>
<path transform="translate(649,323)" d="m0 0h5l-4 3-7 3-4 2-15 2-3-2h-5l-1 1-9 1h-12l-13 1 1 4 17 9 11 4-3 1-31-11-6-3 1-4 8-2 39-4 27-4z" fill="#F7FFFF"/>
<path transform="translate(352,193)" d="m0 0 30 1 28 2 4 1 24 2 2 2 13 3 4 2-9-1-31-5-18-2-37-2h-21l-12 2-18 1-11 1 4-2 25-4z" fill="#297FC0"/>
<path transform="translate(368,188)" d="m0 0 37 1 19 2 29 4 15 3v1l-11-1-28-4-27-2h-36l-28 2-16 2h-5l4-2 14-3 16-2z" fill="#F7FFFF"/>
<path transform="translate(298,291)" d="m0 0h6l4 3-5 3-6 9-1 2h-2l-1 4h-2v-2h-2l-2-4-2-1-2 5-3 7-2 12v13l2 9-1 4-3-12v-20l3-12 6-10 7-7z" fill="#82347F"/>
<path transform="translate(463,532)" d="m0 0 2 1-6 7-10 3-9 4-16 7-18 5 1 2-7 1-11 1 1 3h-29v-1l17-3 19-4 23-6 19-7 17-8z" fill="#2A7BBE"/>
<path transform="translate(200,255)" d="m0 0 3 3 1 2 11-1 9-3 14-1-1 2-19 4-13 4-9 6-5 1v2l-9 6 2-4 6-9 9-11z" fill="#5D3987"/>
<path transform="translate(442,560)" d="m0 0h8v1l-14 3-19 2-10 3h-55l-15-1v-1h35l31-2 33-4z" fill="#F7FFFF"/>
<path transform="translate(381,559)" d="m0 0h8l-1 2-13 3-21 3h-17l-23-3-6-2v-1h7l15 2h22l15-1z" fill="#D8307F"/>
<path transform="translate(196,270)" d="m0 0v3l-6 7-4 7-4-1-1 7-2 1-2 6-4 3-2 3-1-4 11-22 8-6h2v-2z" fill="#42262A"/>
<path transform="translate(178,462)" d="m0 0 5 5 6 12 2 1 2 6h2l4 7 4 3 2 6h2v2h2v2h2v2h2v2h2l6 7 12 9 7 5-3 1-11-8-10-9-13-13-11-14-9-14-5-9z" fill="#D8307E"/>
<path transform="translate(620,318)" d="m0 0h7v1l-20 3-22 2-49 2-8 2 1 3-4-2 1-3 9-2 77-5z" fill="#288BC9"/>
<path transform="translate(312,283)" d="m0 0 4 1 3 2v2l-5 1-4 3h-12l-8 5-6 7h-2l2-5 4-2 2-4 10-5 3-4z" fill="#3B221F"/>
<path transform="translate(475,516)" d="m0 0h2l-2 5-9 10-10 7-19 9-11 4-3-1 5-3 14-5 9-5 4-2h3l1-3 7-6 7-8z" fill="#D5307F"/>
<path transform="translate(613,507)" d="m0 0 2 1-5 5-10 6-14 6-11 2 2-4 7-2 10-5 8-3 10-5z" fill="#28AAE1"/>
<path transform="translate(384,195)" d="m0 0h13l13 1 4 1 24 2 2 2 13 3 4 2-9-1-31-5-18-2-15-1z" fill="#288AC8"/>
<path transform="translate(258,427)" d="m0 0h4v2l7-1v2h5l1 3-4 1h-25l-4-2 11-2 1-2 4 1z" fill="#3A221E"/>
<path transform="translate(285,305)" d="m0 0 4 2v3h2v2h2l2-4-1 5-5 2-1 2h-2l-2 4-4 4-2 3 1-11z" fill="#AA337F"/>
<path transform="translate(615,317)" d="m0 0m-44 1h9l8 1 27-1-3 2-43 3h-9v-1l10-3z" fill="#2965AC"/>
<path transform="translate(395,563)" d="m0 0 17 1v1l-20 2-27 1-11-1v-1h36v-2z" fill="#3ABEEE"/>
<path transform="translate(388,560)" d="m0 0m-5 1h5l2 5h-29v-1l17-3z" fill="#2A7BBE"/>
<path transform="translate(569,322)" d="m0 0h12v1l-25 2-20 1-8 2 1 3-4-2 1-3 9-2z" fill="#2982C3"/>
<path transform="translate(308,561)" d="m0 0h7l15 2h17l3 2-22 1-18-3z" fill="#E7307F"/>
<path transform="translate(208,504)" d="m0 0 1 2h2v2h2v2h2l6 7 12 9 7 5-3 1-11-8-10-9-8-8z" fill="#E6307D"/>
<path transform="translate(329,194)" d="m0 0h7l-2 3-5 1-18 1-11 1 4-2z" fill="#2D86C5"/>
<path transform="translate(463,532)" d="m0 0 2 1-6 7-10 3-18 8-2-1 5-3 18-8 10-6z" fill="#2A7BBE"/>
<path transform="translate(179,287)" d="m0 0 1 3 2 1-3 3-2 6-4 3-2 3-1-4 5-11h3z" fill="#4D2834"/>
<path transform="translate(660,284)" d="m0 0 4 2 8 7 3 5v7l-3-3-4-8-4-4v-2l-3-1z" fill="#27A9E0"/>
<path transform="translate(534,540)" d="m0 0m-3 1 3 1-13 4-23 5-4-1 10-3 4-1 15-3z" fill="#3ABEEE"/>
<path transform="translate(197,286)" d="m0 0 8 2v5l-15-1v-4l6-1z" fill="#3A221E"/>
<path transform="translate(521,545)" d="m0 0 4 1-6 3-14 2-10 2h-6v-1z" fill="#F7FFFF"/>
<path transform="translate(161,329)" d="m0 0h1l1 8-2 12h-2v6h-1v-12z" fill="#602843"/>
<path transform="translate(381,559)" d="m0 0h8l-1 2-13 3-10 1v-2z" fill="#D3307F"/>
<path transform="translate(585,242)" d="m0 0 7 3 4 2 5 5-5-1-15-7z" fill="#24A5DE"/>
<path transform="translate(663,342)" d="m0 0 2 4 8 5 2 2h-8l-5-4-1-5z" fill="#F7FFFF"/>
<path transform="translate(233,255)" d="m0 0h5l-1 2-19 4h-5l2-2 9-3z" fill="#593787"/>
<path transform="translate(170,443)" d="m0 0 2 3 3 5 3 7 1 4-2 2-7-16z" fill="#E0307F"/>
<path transform="translate(641,367)" d="m0 0 5 1 8 7 2 7-12-12z" fill="#F7FFFF"/>
<path transform="translate(193,487)" d="m0 0 5 4 5 5 2 6h2l1 4-5-4-10-13z" fill="#D4307E"/>
<path transform="translate(284,430)" d="m0 0h14l-1 2-7 1h-14l2-2 6 1z" fill="#3A221E"/>
<path transform="translate(709,350)" d="m0 0h2l-2 4-2 1h-16v-1l9-1z" fill="#28A7DF"/>
<path transform="translate(535,324)" d="m0 0h13v1l-12 1-8 2 1 3-4-2 1-3z" fill="#2888C7"/>
<path transform="translate(182,286)" d="m0 0 3 1-1 5-2 5-4 2v-5l3-1z" fill="#3A221C"/>
<path transform="translate(518,542)" d="m0 0 5 1-4 2-11 2-4-2z" fill="#24A5DE"/>
<path transform="translate(457,461)" d="m0 0 6 2 7 5-2 2-4-4-6-1-2-3z" fill="#7C3583"/>
<path transform="translate(355,279)" d="m0 0 5 3 8 7-1 3-8-8-4-3z" fill="#5B3786"/>
<path transform="translate(263,231)" d="m0 0m-7 1h7v1l-12 3-5 1 1-4z" fill="#2A7BBE"/>
<path transform="translate(401,555)" d="m0 0h6l-2 2-8 2h-7l2-2z" fill="#D5307F"/>
<path transform="translate(498,546)" d="m0 0h6l2 2-10 2h-5l3-3z" fill="#24A5DE"/>
<path transform="translate(526,539)" d="m0 0h10l-2 2-7 2h-4v-2h3z" fill="#24A5DE"/>
<path transform="translate(463,532)" d="m0 0 2 1-6 7-6 1 4-5z" fill="#2989C8"/>
<path transform="translate(405,196)" d="m0 0 18 2v1h-14l-4-1z" fill="#2890CC"/>
<path transform="translate(163,426)" d="m0 0 4 3 1 9h-2z" fill="#D2307E"/>
</svg>
